<?xml version="1.0" encoding="UTF-8"?>
<svg width="32" height="32" viewBox="0 0 32 32" fill="none" xmlns="http://www.w3.org/2000/svg">
    <!-- Guitar Body -->
    <path d="M8 12C8 10.8954 8.89543 10 10 10H22C23.1046 10 24 10.8954 24 12V20C24 21.1046 23.1046 22 22 22H10C8.89543 22 8 21.1046 8 20V12Z" fill="#dc3545"/>
    <!-- Sound Hole -->
    <circle cx="16" cy="16" r="3" fill="#2C3E50"/>
    <!-- Guitar Neck -->
    <path d="M14 10V6C14 5.44772 14.4477 5 15 5H17C17.5523 5 18 5.44772 18 6V10" stroke="#2C3E50" stroke-width="2"/>
    <!-- Strings -->
    <line x1="12" y1="14" x2="20" y2="14" stroke="#FFFFFF" stroke-width="1"/>
    <line x1="12" y1="16" x2="20" y2="16" stroke="#FFFFFF" stroke-width="1"/>
    <line x1="12" y1="18" x2="20" y2="18" stroke="#FFFFFF" stroke-width="1"/>
</svg> 